<?xml version="1.0" encoding="UTF-8"?>
<svg xmlns="http://www.w3.org/2000/svg" version="1.1" width="320" height="320" viewBox="0 0 320 320"><rect x="0" y="0" width="320" height="320" fill="#ffffff"/><g transform="scale(7.805)"><g transform="translate(0,0)"><path fill-rule="evenodd" d="M10 0L10 2L9 2L9 1L8 1L8 2L9 2L9 3L8 3L8 4L10 4L10 5L8 5L8 7L9 7L9 6L10 6L10 7L11 7L11 5L13 5L13 4L16 4L16 5L14 5L14 8L13 8L13 6L12 6L12 8L10 8L10 11L11 11L11 13L10 13L10 14L11 14L11 15L7 15L7 14L9 14L9 13L8 13L8 12L9 12L9 11L7 11L7 10L6 10L6 9L9 9L9 8L6 8L6 9L5 9L5 8L0 8L0 9L1 9L1 10L0 10L0 12L4 12L4 13L3 13L3 15L5 15L5 16L2 16L2 15L1 15L1 14L2 14L2 13L0 13L0 15L1 15L1 16L0 16L0 22L1 22L1 23L0 23L0 25L1 25L1 26L0 26L0 33L1 33L1 30L2 30L2 29L1 29L1 26L2 26L2 27L3 27L3 30L6 30L6 31L7 31L7 30L6 30L6 29L8 29L8 32L4 32L4 31L2 31L2 33L3 33L3 32L4 32L4 33L8 33L8 35L9 35L9 34L10 34L10 33L8 33L8 32L9 32L9 31L10 31L10 28L11 28L11 29L14 29L14 30L11 30L11 34L12 34L12 36L11 36L11 35L10 35L10 36L8 36L8 41L10 41L10 40L11 40L11 41L15 41L15 40L12 40L12 39L13 39L13 37L14 37L14 36L13 36L13 34L12 34L12 33L14 33L14 32L12 32L12 31L15 31L15 33L16 33L16 34L15 34L15 35L16 35L16 36L17 36L17 37L18 37L18 38L17 38L17 39L16 39L16 38L15 38L15 39L16 39L16 40L17 40L17 41L18 41L18 40L17 40L17 39L19 39L19 40L20 40L20 41L21 41L21 40L22 40L22 41L23 41L23 40L22 40L22 39L21 39L21 40L20 40L20 39L19 39L19 38L22 38L22 37L23 37L23 38L24 38L24 39L25 39L25 38L24 38L24 37L26 37L26 38L27 38L27 40L25 40L25 41L28 41L28 40L29 40L29 41L30 41L30 40L31 40L31 41L32 41L32 40L33 40L33 39L32 39L32 38L31 38L31 39L30 39L30 40L29 40L29 39L28 39L28 38L29 38L29 37L30 37L30 36L28 36L28 34L29 34L29 33L30 33L30 32L31 32L31 30L32 30L32 31L33 31L33 32L32 32L32 34L31 34L31 36L32 36L32 37L37 37L37 36L38 36L38 37L39 37L39 40L38 40L38 39L37 39L37 38L36 38L36 39L37 39L37 40L38 40L38 41L39 41L39 40L40 40L40 39L41 39L41 38L40 38L40 35L39 35L39 33L40 33L40 34L41 34L41 33L40 33L40 32L41 32L41 31L40 31L40 32L38 32L38 33L37 33L37 29L32 29L32 28L31 28L31 26L33 26L33 28L35 28L35 27L36 27L36 28L38 28L38 29L39 29L39 30L40 30L40 29L39 29L39 28L40 28L40 27L39 27L39 28L38 28L38 27L37 27L37 25L39 25L39 26L41 26L41 25L40 25L40 24L41 24L41 23L40 23L40 24L38 24L38 21L39 21L39 22L41 22L41 21L39 21L39 20L38 20L38 21L34 21L34 24L33 24L33 23L32 23L32 24L33 24L33 25L31 25L31 23L30 23L30 24L29 24L29 21L30 21L30 22L32 22L32 21L30 21L30 20L29 20L29 18L30 18L30 16L27 16L27 15L28 15L28 14L26 14L26 13L28 13L28 12L29 12L29 15L30 15L30 14L32 14L32 16L31 16L31 18L32 18L32 20L37 20L37 19L38 19L38 17L39 17L39 18L41 18L41 15L40 15L40 17L39 17L39 16L38 16L38 15L39 15L39 14L41 14L41 13L40 13L40 12L38 12L38 10L41 10L41 9L40 9L40 8L39 8L39 9L38 9L38 8L37 8L37 9L36 9L36 8L35 8L35 10L36 10L36 12L38 12L38 13L39 13L39 14L37 14L37 13L36 13L36 15L34 15L34 14L35 14L35 13L32 13L32 12L31 12L31 11L30 11L30 12L29 12L29 9L30 9L30 10L32 10L32 11L33 11L33 12L34 12L34 10L32 10L32 9L30 9L30 8L29 8L29 6L30 6L30 7L31 7L31 6L30 6L30 5L32 5L32 7L33 7L33 4L30 4L30 3L31 3L31 2L30 2L30 1L33 1L33 0L29 0L29 2L28 2L28 1L27 1L27 2L28 2L28 3L29 3L29 4L30 4L30 5L29 5L29 6L28 6L28 5L27 5L27 6L26 6L26 7L27 7L27 8L25 8L25 5L24 5L24 4L23 4L23 3L22 3L22 2L23 2L23 1L24 1L24 0L23 0L23 1L22 1L22 0L18 0L18 1L17 1L17 0L16 0L16 1L15 1L15 2L14 2L14 0ZM11 1L11 2L10 2L10 4L11 4L11 2L12 2L12 3L14 3L14 2L13 2L13 1ZM19 1L19 2L15 2L15 3L16 3L16 4L17 4L17 7L16 7L16 6L15 6L15 7L16 7L16 9L15 9L15 8L14 8L14 9L13 9L13 8L12 8L12 9L13 9L13 10L12 10L12 12L14 12L14 13L11 13L11 14L13 14L13 15L12 15L12 16L16 16L16 17L13 17L13 18L10 18L10 16L9 16L9 17L8 17L8 18L10 18L10 21L9 21L9 19L8 19L8 20L7 20L7 19L6 19L6 18L7 18L7 17L5 17L5 20L4 20L4 19L2 19L2 18L3 18L3 17L2 17L2 16L1 16L1 17L2 17L2 18L1 18L1 20L2 20L2 22L3 22L3 20L4 20L4 22L5 22L5 21L6 21L6 22L7 22L7 21L8 21L8 23L9 23L9 24L7 24L7 23L4 23L4 24L3 24L3 23L2 23L2 24L1 24L1 25L2 25L2 24L3 24L3 27L4 27L4 28L8 28L8 29L9 29L9 28L10 28L10 25L12 25L12 26L11 26L11 28L12 28L12 27L13 27L13 28L14 28L14 26L16 26L16 27L17 27L17 28L15 28L15 30L16 30L16 33L17 33L17 36L18 36L18 35L19 35L19 37L22 37L22 36L23 36L23 37L24 37L24 36L27 36L27 38L28 38L28 36L27 36L27 34L28 34L28 33L27 33L27 31L26 31L26 30L28 30L28 31L29 31L29 32L30 32L30 30L31 30L31 28L30 28L30 27L29 27L29 26L30 26L30 25L29 25L29 24L28 24L28 25L27 25L27 26L28 26L28 27L26 27L26 25L25 25L25 26L23 26L23 25L24 25L24 24L26 24L26 22L28 22L28 19L25 19L25 20L27 20L27 21L24 21L24 18L25 18L25 16L26 16L26 15L24 15L24 14L23 14L23 13L24 13L24 12L23 12L23 11L25 11L25 12L26 12L26 11L27 11L27 12L28 12L28 11L27 11L27 10L28 10L28 9L29 9L29 8L27 8L27 9L24 9L24 5L23 5L23 4L22 4L22 3L21 3L21 1ZM29 2L29 3L30 3L30 2ZM17 3L17 4L18 4L18 3ZM19 3L19 5L21 5L21 6L20 6L20 7L21 7L21 8L23 8L23 6L22 6L22 4L20 4L20 3ZM25 3L25 4L27 4L27 3ZM18 6L18 7L19 7L19 6ZM21 6L21 7L22 7L22 6ZM27 6L27 7L28 7L28 6ZM17 8L17 9L16 9L16 10L14 10L14 12L15 12L15 11L16 11L16 12L17 12L17 13L16 13L16 14L15 14L15 15L16 15L16 16L17 16L17 17L16 17L16 18L15 18L15 20L13 20L13 19L11 19L11 20L13 20L13 21L12 21L12 22L13 22L13 23L12 23L12 24L13 24L13 25L16 25L16 26L17 26L17 25L18 25L18 26L20 26L20 25L18 25L18 24L17 24L17 22L18 22L18 23L19 23L19 22L24 22L24 21L23 21L23 18L24 18L24 15L22 15L22 13L23 13L23 12L22 12L22 10L21 10L21 9L19 9L19 8ZM33 8L33 9L34 9L34 8ZM2 9L2 10L3 10L3 11L4 11L4 12L5 12L5 14L7 14L7 13L6 13L6 12L7 12L7 11L6 11L6 10L3 10L3 9ZM17 9L17 10L16 10L16 11L17 11L17 12L18 12L18 13L17 13L17 16L18 16L18 17L19 17L19 16L21 16L21 17L22 17L22 18L23 18L23 16L21 16L21 13L22 13L22 12L20 12L20 11L21 11L21 10L19 10L19 12L18 12L18 11L17 11L17 10L18 10L18 9ZM23 9L23 10L24 10L24 9ZM5 11L5 12L6 12L6 11ZM18 13L18 16L19 16L19 14L20 14L20 13ZM6 15L6 16L7 16L7 15ZM33 15L33 17L35 17L35 18L34 18L34 19L35 19L35 18L36 18L36 19L37 19L37 18L36 18L36 17L37 17L37 16L34 16L34 15ZM27 17L27 18L28 18L28 17ZM17 18L17 20L18 20L18 21L22 21L22 20L21 20L21 18L19 18L19 19L18 19L18 18ZM6 20L6 21L7 21L7 20ZM10 21L10 22L11 22L11 21ZM35 22L35 23L36 23L36 24L34 24L34 25L35 25L35 26L34 26L34 27L35 27L35 26L36 26L36 25L37 25L37 22ZM10 23L10 24L11 24L11 23ZM13 23L13 24L14 24L14 23ZM15 23L15 24L16 24L16 25L17 25L17 24L16 24L16 23ZM20 23L20 24L22 24L22 23ZM6 24L6 25L7 25L7 24ZM28 25L28 26L29 26L29 25ZM5 26L5 27L8 27L8 28L9 28L9 26ZM21 26L21 27L20 27L20 29L18 29L18 28L17 28L17 31L18 31L18 32L17 32L17 33L18 33L18 32L19 32L19 34L20 34L20 36L22 36L22 33L23 33L23 34L24 34L24 35L25 35L25 34L24 34L24 33L26 33L26 32L25 32L25 30L24 30L24 29L26 29L26 28L24 28L24 27L22 27L22 26ZM21 28L21 29L22 29L22 32L24 32L24 30L23 30L23 28ZM27 28L27 29L28 29L28 30L29 30L29 29L30 29L30 28L29 28L29 29L28 29L28 28ZM18 30L18 31L20 31L20 30ZM34 30L34 32L36 32L36 31L35 31L35 30ZM33 33L33 36L36 36L36 33ZM34 34L34 35L35 35L35 34ZM38 35L38 36L39 36L39 35ZM9 37L9 40L10 40L10 39L12 39L12 37ZM34 38L34 39L35 39L35 38ZM31 39L31 40L32 40L32 39ZM35 40L35 41L36 41L36 40ZM0 0L0 7L7 7L7 0ZM1 1L1 6L6 6L6 1ZM2 2L2 5L5 5L5 2ZM34 0L34 7L41 7L41 0ZM35 1L35 6L40 6L40 1ZM36 2L36 5L39 5L39 2ZM0 34L0 41L7 41L7 34ZM1 35L1 40L6 40L6 35ZM2 36L2 39L5 39L5 36Z" fill="#000000"/></g></g></svg>
